<svg xmlns="http://www.w3.org/2000/svg" fill="currentColor" viewBox="0 0 24 24"><defs/><path d="M6 12.065c-2.198 0-4 1.788-4 4.008 0 2.22 1.802 4.04 4 4.04s4-1.82 4-4.04a4.007 4.007 0 00-4-4.008zm0 6.968c-1.618 0-2.931-1.326-2.931-2.96s1.313-2.96 2.931-2.96 2.931 1.326 2.931 2.96-1.313 2.96-2.931 2.96zM18 12.065c-2.198 0-4 1.819-4 4.039 0 2.22 1.802 4.039 4 4.039s4-1.82 4-4.04c0-2.25-1.802-4.038-4-4.038zm0 6.968c-1.618 0-2.931-1.326-2.931-2.96s1.313-2.96 2.931-2.96 2.931 1.326 2.931 2.96-1.313 2.96-2.931 2.96zM11.374 12.589C9.725 11.2 8.9 10.924 8.809 10.893c-.366-.123-.794-.339-.886-.678-.091-.401.306-.987.489-1.172l2.992-2.559c.794-.617 1.252-.647 1.65-.678h.09c.428-.031.581.061.612.061l.06.062s.428.37.611 1.11c.03.123.061.37.092.648.091.863.214 1.819.702 2.281a.491.491 0 00.214.123s.885.278 3.206.956c.275.093.58-.092.672-.37.091-.277-.092-.585-.367-.678-1.77-.524-2.717-.802-3.053-.925-.183-.308-.275-1.14-.336-1.542a4.529 4.529 0 00-.122-.77c-.244-.987-.763-1.511-.947-1.665-.152-.185-.58-.494-1.496-.401h-.06c-.459.03-1.161.092-2.23.925L7.65 8.24l-.03.031c-.092.124-1.039 1.11-.764 2.19.152.647.702 1.14 1.588 1.449 0 0 .732.246 2.198 1.48a.456.456 0 00.336.123.49.49 0 00.397-.185c.275-.216.244-.555 0-.74z"/><path d="M13.023 7.625l-2.81 1.912a.493.493 0 00-.244.431c0 .185.062.34.214.432l2.412 1.912c-.091.524-.397 1.942-1.343 5.457-.061.277.091.586.366.647.061 0 .092.031.123.031a.524.524 0 00.519-.4c1.313-5.057 1.404-5.859 1.404-5.92a.557.557 0 00-.214-.463l-2.076-1.634 2.198-1.48c.245-.154.306-.493.153-.74a.457.457 0 00-.702-.185zM17.664 7.193c1.16 0 2.077-.956 2.077-2.096A2.089 2.089 0 0017.664 3c-1.16 0-2.076.956-2.076 2.097 0 1.14.916 2.096 2.076 2.096zm0-3.145c.55 0 1.008.463 1.008 1.018 0 .555-.458 1.017-1.008 1.017s-1.007-.462-1.007-1.017c0-.555.458-1.018 1.007-1.018z"/></svg>