<svg xmlns="http://www.w3.org/2000/svg" fill="currentColor" viewBox="0 0 24 24"><defs/><path d="M12 3.75A8.25 8.25 0 003.75 12c0 1.698.527 3.268 1.413 4.584a.75.75 0 01.094.643 9.814 9.814 0 01-1.624 3.1 8.812 8.812 0 003.794-1.046.75.75 0 01.705 0A8.21 8.21 0 0012 20.25 8.25 8.25 0 0020.25 12 8.25 8.25 0 0012 3.75zM2.25 12A9.75 9.75 0 0112 2.25 9.75 9.75 0 0121.75 12 9.75 9.75 0 0112 21.75a9.697 9.697 0 01-4.219-.966 10.25 10.25 0 01-4.505 1.05c-.478 0-.936-.043-1.374-.1a.75.75 0 01-.407-1.299 8.281 8.281 0 002.22-3.328A9.653 9.653 0 012.25 12z"/></svg>