<svg xmlns="http://www.w3.org/2000/svg" fill="currentColor" viewBox="0 0 24 24"><defs/><path d="M14.305 2.818a1.749 1.749 0 012.474 0l1.403 1.403a1.75 1.75 0 010 2.475L7.348 17.53a.75.75 0 01-.53.22H4a.75.75 0 01-.75-.75v-2.818a.75.75 0 01.22-.53L14.305 2.818zm1.414 1.06a.249.249 0 00-.353 0L4.75 14.493v1.757h1.757L17.122 5.636a.25.25 0 000-.355l-1.403-1.403zM2.25 21a.75.75 0 01.75-.75h18a.75.75 0 010 1.5H3a.75.75 0 01-.75-.75z"/><path d="M12.52 4.6a.75.75 0 011.06 0l2.82 2.82a.75.75 0 11-1.06 1.06l-2.82-2.82a.75.75 0 010-1.06z"/></svg>