<svg xmlns="http://www.w3.org/2000/svg" fill="currentColor" viewBox="0 0 24 24"><defs/><path d="M9.4 16.341A3.633 3.633 0 005.741 20a.741.741 0 01-1.482 0c0-2.92 2.343-5.141 5.141-5.141h5.1c2.92 0 5.141 2.343 5.141 5.141a.741.741 0 01-1.482 0 3.633 3.633 0 00-3.659-3.659H9.4zM14.478 5.738a3.6 3.6 0 00-4.964.008c-1.356 1.277-1.325 3.498.032 4.94 1.277 1.356 3.498 1.325 4.94-.032 1.374-1.293 1.4-3.499-.008-4.916zM8.486 4.654a5.1 5.1 0 017.044.016c1.984 1.983 2.008 5.171-.016 7.076-1.958 1.843-5.136 2.012-7.06-.032-1.843-1.958-2.012-5.137.032-7.06z"/></svg>