<svg xmlns="http://www.w3.org/2000/svg" fill="currentColor" viewBox="0 0 24 24"><defs/><path d="M4 7.5a.75.75 0 01.75.75V19c0 .69.56 1.25 1.25 1.25h11a2.25 2.25 0 100-4.5h-4a.75.75 0 010-1.5h4a3.75 3.75 0 110 7.5H6A2.75 2.75 0 013.25 19V8.25A.75.75 0 014 7.5zM20 7.5a.75.75 0 01.75.75V12a.75.75 0 01-1.5 0V8.25A.75.75 0 0120 7.5z"/><path d="M15.53 12.47a.75.75 0 010 1.06L14.06 15l1.47 1.47a.75.75 0 11-1.06 1.06l-2-2a.75.75 0 010-1.06l2-2a.75.75 0 011.06 0zM4 4.75a.25.25 0 00-.25.25v2.25c0 .138.112.25.25.25h16a.25.25 0 00.25-.25V5a.25.25 0 00-.25-.25H4zM2.25 5c0-.966.784-1.75 1.75-1.75h16c.966 0 1.75.784 1.75 1.75v2.25A1.75 1.75 0 0120 9H4a1.75 1.75 0 01-1.75-1.75V5z"/></svg>