<svg xmlns="http://www.w3.org/2000/svg" fill="currentColor" viewBox="0 0 24 24"><defs/><path d="M4.565 6.987a1.64 1.64 0 011.6-1.286h9.673c.77 0 1.436.534 1.601 1.286l1.05 4.742a.75.75 0 11-1.465.324l-1.049-4.742a.14.14 0 00-.137-.11H6.166a.14.14 0 00-.137.11L3.666 17.992a.14.14 0 00.136.17H12a.75.75 0 010 1.5H3.802a1.64 1.64 0 01-1.6-1.994L4.564 6.987z"/><path d="M8.026 4.225A2.975 2.975 0 0111 1.25h.001a2.975 2.975 0 012.976 2.975v2.226a.75.75 0 01-1.5 0V4.225a1.475 1.475 0 10-2.952 0v2.226a.75.75 0 11-1.5 0V4.225zM16.648 6.021c.404.09.66.49.57.894l-1.226 5.546a.75.75 0 11-1.465-.324l1.226-5.545a.75.75 0 01.895-.57z"/><path d="M20.005 13.995a4.25 4.25 0 10-6.01 6.01 4.25 4.25 0 006.01-6.01zm-7.07-1.06a5.75 5.75 0 118.13 8.131 5.75 5.75 0 01-8.13-8.132z"/><path d="M17 14.25a.75.75 0 01.75.75v4a.75.75 0 01-1.5 0v-4a.75.75 0 01.75-.75z"/><path d="M14.25 17a.75.75 0 01.75-.75h4a.75.75 0 010 1.5h-4a.75.75 0 01-.75-.75z"/></svg>