<svg xmlns="http://www.w3.org/2000/svg" fill="currentColor" viewBox="0 0 24 24"><defs/><path d="M4.859 7.622A1.75 1.75 0 016.567 6.25h10.866c.82 0 1.532.57 1.708 1.372l2.655 12a1.75 1.75 0 01-1.708 2.128H3.912a1.75 1.75 0 01-1.708-2.128l2.655-12zm15.473 12.324l-2.655-12a.25.25 0 00-.244-.196H6.567a.25.25 0 00-.244.196l-2.655 12a.25.25 0 00.244.304h16.176a.25.25 0 00.244-.304z"/><path d="M8.749 4.5a3.25 3.25 0 013.25-3.25H12a3.25 3.25 0 013.25 3.25V7a.75.75 0 01-1.5 0V4.5A1.75 1.75 0 0012 2.75h-.001a1.75 1.75 0 00-1.75 1.75V7a.75.75 0 11-1.5 0V4.5zM18.322 6.608c.404.09.66.49.57.894l-3.02 13.66a.75.75 0 01-1.464-.324l3.02-13.66a.75.75 0 01.894-.57z"/></svg>