<svg xmlns="http://www.w3.org/2000/svg" fill="currentColor" viewBox="0 0 24 24"><defs/><path d="M12 2.146a.75.75 0 01.674.42l2.76 5.639 6.175.909a.75.75 0 01.416 1.277l-4.47 4.388 1.055 6.2a.75.75 0 01-1.09.788L12 18.842l-5.52 2.925a.75.75 0 01-1.09-.789l1.055-6.2-4.47-4.387a.75.75 0 01.416-1.277l6.173-.91 2.762-5.638a.75.75 0 01.674-.42zm0 2.455L9.738 9.219a.75.75 0 01-.565.412l-5.07.747 3.672 3.605a.75.75 0 01.214.66l-.865 5.085 4.525-2.398a.75.75 0 01.702 0l4.525 2.398-.865-5.084a.75.75 0 01.214-.661l3.672-3.605-5.071-.747a.75.75 0 01-.565-.412L12 4.6z"/></svg>