<svg xmlns="http://www.w3.org/2000/svg" fill="currentColor" viewBox="0 0 24 24"><path d="M8.25 2A.75.75 0 019 1.25h4a.75.75 0 010 1.5H9A.75.75 0 018.25 2zM7.64 9.64a.75.75 0 011.06 0l2.83 2.83a.75.75 0 01-1.06 1.06L7.64 10.7a.75.75 0 010-1.06zM19.53 4.47a.75.75 0 010 1.06l-2.34 2.34a.75.75 0 11-1.06-1.06l2.34-2.34a.75.75 0 011.06 0z"/><path d="M17.47 3.47a.75.75 0 011.06 0l2 2a.75.75 0 01-1.06 1.06l-2-2a.75.75 0 010-1.06zM14.05 15.5c0-2.367 1.968-4.25 4.35-4.25 2.382 0 4.35 1.883 4.35 4.25 0 .822-.28 1.617-.65 2.317-.372.705-.859 1.357-1.331 1.906a16.226 16.226 0 01-1.852 1.823l-.034.028-.01.008-.003.003h-.001L18.4 21l-.468.586-.002-.001-.003-.003-.01-.008-.034-.028a15.081 15.081 0 01-.553-.485 16.226 16.226 0 01-1.299-1.338c-.472-.549-.96-1.201-1.332-1.906-.37-.7-.649-1.495-.649-2.317zM18.4 21l-.468.586a.751.751 0 00.937 0L18.4 21zm0-.992l.055-.05c.322-.297.75-.717 1.176-1.213.428-.497.84-1.056 1.143-1.629.306-.577.476-1.126.476-1.616 0-1.499-1.256-2.75-2.85-2.75s-2.85 1.251-2.85 2.75c0 .49.17 1.039.476 1.616.302.573.715 1.132 1.143 1.63a14.706 14.706 0 001.231 1.262z"/><path d="M18.496 14.8a1 1 0 10.009 2 1 1 0 00-.009-2z"/><path d="M2.25 13A8.75 8.75 0 0111 4.25c4.482 0 8.17 3.372 8.684 7.715a.75.75 0 11-1.49.176A7.248 7.248 0 003.75 13 7.25 7.25 0 0011 20.25a7.21 7.21 0 004.85-1.873.75.75 0 111.005 1.114A8.71 8.71 0 0111 21.75 8.75 8.75 0 012.25 13z"/></svg>
