<svg xmlns="http://www.w3.org/2000/svg" fill="currentColor" viewBox="0 0 24 24"><defs/><path d="M4.25 7.25A.75.75 0 015 6.5h14A.75.75 0 0119 8H5a.75.75 0 01-.75-.75z"/><path d="M6 6.5a.75.75 0 01.75.75v11c0 .69.56 1.25 1.25 1.25h8c.69 0 1.25-.56 1.25-1.25v-11a.75.75 0 011.5 0v11A2.75 2.75 0 0116 21H8a2.75 2.75 0 01-2.75-2.75v-11A.75.75 0 016 6.5zM8.25 4A.75.75 0 019 3.25h6a.75.75 0 010 1.5H9A.75.75 0 018.25 4z"/><path d="M10 10.5a.75.75 0 01.75.75v5a.75.75 0 01-1.5 0v-5a.75.75 0 01.75-.75zM14 10.5a.75.75 0 01.75.75v5a.75.75 0 01-1.5 0v-5a.75.75 0 01.75-.75z"/></svg>